<svg width="30" height="58" viewBox="0 0 30 58" fill="none" xmlns="http://www.w3.org/2000/svg">
<path d="M15 1C18.6838 1 22.217 2.4303 24.8359 4.97754C27.3727 7.44501 28.8546 10.7682 28.9912 14.2656L29 14.6045C28.9978 15.5054 28.7861 16.8518 28.3818 18.5723C27.9796 20.2844 27.4021 22.3053 26.7031 24.5186C25.3055 28.9443 23.4383 34.095 21.5664 39.0029C19.6954 43.9084 17.824 48.5608 16.4199 51.9873C15.8645 53.3427 15.3808 54.5052 15.001 55.416C14.6211 54.5053 14.1384 53.3425 13.583 51.9873C12.1786 48.5608 10.3059 43.9084 8.43457 39.0029C6.56233 34.095 4.69573 28.9443 3.29785 24.5186C2.59877 22.3052 2.02051 20.2844 1.61816 18.5723C1.21386 16.8518 1.00224 15.5054 1 14.6045C1.05123 10.9835 2.54554 7.5245 5.16406 4.97754C7.78301 2.4303 11.3162 1 15 1Z" fill="black" stroke="url(#paint0_linear_1_47)" stroke-width="2"/>
<defs>
<linearGradient id="paint0_linear_1_47" x1="15.0015" y1="58" x2="15.0015" y2="-0.29519" gradientUnits="userSpaceOnUse">
<stop stop-color="#FFFB90"/>
<stop offset="0.27" stop-color="#E6C758"/>
<stop offset="0.4" stop-color="#AD8330"/>
<stop offset="0.52" stop-color="#9D7126"/>
<stop offset="0.64" stop-color="#DABE5B"/>
<stop offset="0.77" stop-color="#FFFFAA"/>
<stop offset="0.83" stop-color="#FBE878"/>
<stop offset="1" stop-color="#A4631B"/>
</linearGradient>
</defs>
</svg>
