<svg preserveAspectRatio="none" width="100%" height="100%" overflow="visible" style="display: block;" viewBox="0 0 48 48" fill="none" xmlns="http://www.w3.org/2000/svg">
<path id="Vector" d="M48 23.915C47.9787 23.8463 47.9622 23.7784 47.9289 23.7169C47.928 23.7069 47.9269 23.6868 47.9265 23.6767C47.8948 23.6345 47.8651 23.5951 47.8353 23.555C47.8256 23.5422 47.806 23.5165 47.7964 23.5036C47.7192 23.4354 47.6408 23.3699 47.5613 23.3059C47.4095 23.202 47.2611 23.093 47.1118 22.9861C47.0165 22.9206 46.9233 22.8531 46.8293 22.7876C46.5248 22.5783 46.2246 22.363 45.9141 22.1629C45.8855 22.1416 45.8578 22.1216 45.8305 22.103C45.7469 22.0512 45.6649 21.9973 45.5842 21.9439C45.1523 21.6458 44.677 21.414 44.2612 21.0939C44.2239 21.0746 44.1868 21.0565 44.1503 21.0392L44.1475 21.0103C44.1194 21.0087 44.0624 21.005 44.0341 21.0034L44.0318 20.9701C43.8466 20.9612 43.6538 20.942 43.4777 21.0147C43.2938 21.1377 43.0888 21.2233 42.8912 21.3209C42.8469 21.3398 42.8036 21.3606 42.7606 21.3823C42.7064 21.4076 42.6521 21.433 42.5986 21.4599C42.3448 21.5816 42.0911 21.7046 41.8369 21.8251C41.7823 21.8504 41.728 21.8769 41.6741 21.9038C41.2847 22.0886 40.899 22.2798 40.5118 22.4691C40.2165 22.6162 39.9223 22.7656 39.6314 22.9215C39.3293 23.0837 39.0328 23.2572 38.756 23.461C38.0847 23.4067 37.4088 23.4413 36.7379 23.3859C36.7604 23.3333 36.7841 23.2822 36.8081 23.232C37.0553 22.782 37.3256 22.3409 37.6635 21.9524C37.9898 21.5972 38.3453 21.271 38.7074 20.9529C38.7207 20.9435 38.7476 20.9259 38.7607 20.9167C38.8238 20.8597 38.8869 20.803 38.9548 20.7524C40.0778 19.8577 41.3301 19.1478 42.5475 18.3928C42.9533 18.1309 43.3956 17.9132 43.746 17.5753C43.3587 17.5033 42.9819 17.6448 42.6138 17.7448C41.7817 17.9794 40.971 18.2851 40.1871 18.6483C39.9154 18.7749 39.6463 18.907 39.3831 19.0501C38.9222 19.3012 38.4791 19.5844 38.0557 19.8946C38.0019 19.9336 37.9496 19.975 37.8962 20.0156C37.8275 20.0669 37.7624 20.1229 37.6945 20.1759C37.4099 20.4008 37.1493 20.6531 36.8821 20.8979L36.8785 20.9275L36.8512 20.9271C36.8383 20.9404 36.8122 20.9674 36.7993 20.9806L36.8006 21.0087L36.7588 21.0067L36.7572 21.0385C36.4494 21.3455 36.2007 21.7041 35.9664 22.0686C35.8126 22.3184 35.6627 22.5708 35.5221 22.8287C35.4872 22.8973 35.4526 22.9673 35.4192 23.0384C35.3746 23.1365 35.3381 23.2385 35.3083 23.3433C34.9696 23.3441 34.6309 23.3345 34.2927 23.3341C34.3015 23.0047 34.3963 22.6853 34.5075 22.378C34.7952 21.6022 35.2874 20.9276 35.7462 20.2483C35.5971 20.3126 35.4979 20.4488 35.3661 20.5396C34.6968 21.1021 34.0439 21.7228 33.6373 22.5081C33.5119 22.7641 33.4119 23.0317 33.3335 23.306C33.0269 23.3124 32.7208 23.3068 32.4146 23.3043C32.4527 22.6591 32.6388 22.0159 33.0068 21.48C33.1579 21.2526 33.315 21.024 33.5416 20.8654C33.5123 20.8661 33.4535 20.8686 33.4247 20.8697C33.2512 20.9741 33.0555 21.0373 32.8871 21.1517C32.4383 21.4406 32.0314 21.8102 31.7465 22.2654C31.7357 22.2839 31.7139 22.3213 31.7032 22.3401C31.5613 22.5944 31.4677 22.8709 31.3854 23.1493C31.3762 23.1971 31.3673 23.2461 31.3593 23.296C31.0262 23.3048 30.6932 23.2928 30.3601 23.296C30.3304 22.7415 30.4734 22.1951 30.6791 21.6853C30.7161 21.6234 30.7495 21.5587 30.78 21.4948C30.5638 21.621 30.3505 21.7584 30.1777 21.9416C29.935 22.1984 29.7064 22.4752 29.5538 22.7966C29.4806 22.9505 29.4364 23.1152 29.3826 23.2766C29.1468 23.2976 28.9033 23.2919 28.6667 23.2722C28.5815 23.2669 28.4971 23.265 28.4127 23.2609C28.3927 23.0367 28.3874 22.8097 28.4365 22.5896C28.4815 22.3859 28.4907 22.1742 28.5714 21.9801C28.5161 21.9809 28.4626 21.9966 28.4236 22.0379C28.0773 22.2653 27.8286 22.6108 27.6261 22.9664C27.58 23.0595 27.5421 23.1564 27.4991 23.2521C27.1432 23.2717 26.7856 23.2484 26.4293 23.2593C26.3589 22.9977 26.3244 22.7129 26.3875 22.4478C26.4887 22.3107 26.6238 22.2015 26.7383 22.0757C27.3216 21.4803 27.9126 20.8922 28.4933 20.2939C28.5648 20.2079 28.6901 20.2477 28.7873 20.2297C29.4912 20.1252 30.1939 20.0147 30.8998 19.9235C31.4755 19.8556 32.0493 19.7629 32.6287 19.7332C32.6322 19.7159 32.6399 19.6809 32.6434 19.6633C32.5253 19.5829 32.3694 19.6388 32.2361 19.6159C31.3225 19.5147 30.408 19.4146 29.5 19.2728C29.6944 19.0707 29.8938 18.873 30.0914 18.6742C31.2481 18.6586 32.4049 18.622 33.5599 18.5513C33.9198 18.5388 34.2773 18.4874 34.6382 18.4959C34.6489 18.4758 34.6708 18.4352 34.6815 18.4152C34.5369 18.3368 34.3665 18.3417 34.2103 18.3035C33.1689 18.0861 32.1231 17.886 31.0732 17.7128C31.0793 17.6975 31.0906 17.6662 31.0965 17.651C31.2693 17.4911 31.426 17.3155 31.5915 17.1488C31.8451 17.2187 32.1031 17.1463 32.3596 17.1471C33.6465 17.072 34.9319 16.9743 36.2171 16.8695C37.0089 16.8204 37.7964 16.7148 38.5887 16.6819C38.5907 16.6292 38.5734 16.563 38.5083 16.5718C38.3645 16.5622 38.2195 16.5718 38.0772 16.5493C36.4413 16.387 34.802 16.2504 33.1636 16.1215C32.9937 16.1095 32.8234 16.1022 32.6533 16.0958C32.6537 16.0822 32.6542 16.0548 32.6546 16.0408C32.886 15.8106 33.1013 15.5623 33.3304 15.3317C33.645 15.3892 33.9659 15.3912 34.2862 15.3945C34.598 15.4209 34.9097 15.386 35.2214 15.3771C35.51 15.3475 35.8081 15.3341 36.0805 15.2264C36.162 15.1911 36.2749 15.081 36.1745 15.0047C36.017 14.8637 35.7957 14.8352 35.6008 14.7745C35.1094 14.6463 34.6124 14.5411 34.115 14.4398C34.2131 14.274 34.3445 14.1313 34.4476 13.9694C34.5714 14.0605 34.7048 14.1381 34.8426 14.2068C34.9093 14.2313 34.9756 14.2579 35.0427 14.2852C35.0833 14.2965 35.1241 14.3093 35.1656 14.3238C35.8506 14.4985 36.6176 14.2671 37.0861 13.7364C37.6144 13.1707 37.7599 12.2824 37.4296 11.5806C37.4199 11.56 37.4002 11.5187 37.3902 11.4982C37.1961 11.1181 36.8836 10.8052 36.5035 10.6114C36.483 10.6014 36.4421 10.5817 36.4211 10.5721C36.0784 10.4135 35.6956 10.3656 35.3219 10.4119C34.9326 10.4801 34.5548 10.6424 34.2652 10.9157C33.7349 11.3837 33.5027 12.1511 33.6783 12.836C33.6908 12.8762 33.7036 12.9172 33.716 12.9593C33.7791 13.1264 33.8521 13.2908 33.9535 13.4395C33.8137 13.5396 33.6671 13.6323 33.5449 13.7545C33.3971 13.1808 33.3067 12.5914 33.1154 12.0298C33.0813 11.9221 33.0146 11.8285 32.9189 11.7687C32.7646 11.8574 32.7257 12.0386 32.6951 12.2005C32.5596 12.9662 32.6088 13.7461 32.6264 14.519C32.391 14.7525 32.1372 14.9695 31.9009 15.2033C31.8932 15.0807 31.8884 14.9582 31.8799 14.8364C31.7698 13.4314 31.6518 12.0261 31.5204 10.6224C31.4842 10.2467 31.4348 9.87195 31.4296 9.49471C31.438 9.4284 31.3705 9.40872 31.3199 9.41201C31.3139 9.50677 31.3135 9.60284 31.3091 9.6992C31.144 11.5729 30.9877 13.4484 30.8748 15.3258C30.843 15.6315 30.8559 15.9429 30.8033 16.2459C30.6269 16.4275 30.4397 16.5982 30.2617 16.7782C30.0962 15.7578 29.8948 14.7433 29.6864 13.7313C29.6555 13.5939 29.657 13.4448 29.586 13.3203C29.5658 13.3311 29.5257 13.3529 29.5056 13.3636C29.514 13.7155 29.4638 14.0655 29.4518 14.417C29.3867 15.4941 29.3469 16.5728 29.3305 17.6516C29.3277 17.7198 29.2593 17.7584 29.2208 17.8086C29.0588 17.962 28.8945 18.1135 28.7442 18.2782C28.7305 18.279 28.7028 18.2802 28.6892 18.2807C28.6342 17.8171 28.5617 17.3554 28.5137 16.891C28.4635 16.4084 28.3807 15.928 28.3754 15.4427C28.3763 15.3808 28.3276 15.335 28.2694 15.3703C28.1821 16.4992 28.0066 17.6202 27.8423 18.7407C27.8013 18.9098 27.8258 19.1014 27.7383 19.2561C27.0733 19.9311 26.3783 20.5768 25.709 21.2477C25.5663 21.3746 25.4502 21.5353 25.2895 21.6398C25.0492 21.6519 24.8061 21.6077 24.5819 21.5213C24.586 21.1955 24.5736 20.8697 24.5851 20.5443C24.9415 20.4615 25.2584 20.2623 25.5394 20.0344C25.6881 19.9151 25.8266 19.7821 25.9306 19.6218C25.9753 19.5643 26.0242 19.5065 26.0207 19.4302C25.8226 19.5121 25.6068 19.5197 25.3999 19.5675C25.1287 19.625 24.8475 19.6105 24.5778 19.5522C24.5714 19.4141 24.5735 19.2763 24.5726 19.1388C24.5726 18.9724 24.5265 18.8026 24.5767 18.6398C24.6678 18.6237 24.7583 18.6021 24.8491 18.5828C24.9864 18.5366 25.1215 18.4848 25.254 18.4265C25.7643 18.1416 26.2271 17.7427 26.5068 17.2224C25.9085 17.5325 25.2235 17.6864 24.5494 17.6362C24.549 17.318 24.5437 17.0006 24.5474 16.6833C24.649 16.6624 24.7495 16.6367 24.8507 16.6141C25.1312 16.5366 25.4063 16.4377 25.6623 16.2983C26.1424 16.0195 26.5297 15.6021 26.8326 15.1413C26.9548 14.9653 27.0227 14.76 27.1316 14.5768C27.1327 14.5475 27.1352 14.4892 27.1359 14.4599C26.9769 14.6869 26.7475 14.8435 26.5192 14.9955C26.4561 15.0372 26.3919 15.0774 26.3272 15.118C25.7869 15.431 25.1629 15.58 24.541 15.5909C24.5401 15.2976 24.5474 15.0042 24.5558 14.7114C25.0005 14.5849 25.4413 14.4253 25.8301 14.1703C26.4702 13.7544 26.998 13.1916 27.4839 12.6083C27.5679 12.4861 27.6948 12.3949 27.753 12.2559C27.4376 12.4544 27.1455 12.6899 26.8217 12.8763C26.1463 13.3126 25.3938 13.6669 24.5823 13.7312C24.5832 13.3877 24.5843 13.0446 24.588 12.7019C24.7189 12.6826 24.8431 12.6361 24.9631 12.5826C25.06 12.536 25.1556 12.4865 25.2508 12.4367C25.4814 12.3086 25.7077 12.1736 25.9322 12.0353C26.3086 11.7998 26.6642 11.5323 26.9897 11.2307L26.9929 11.2017L27.0206 11.2026C27.0339 11.1898 27.0608 11.1636 27.074 11.1503L27.0732 11.1222L27.115 11.1242L27.1137 11.0832L27.1435 11.0788C27.3736 10.8241 27.6115 10.5766 27.8256 10.3078C27.9205 10.1877 28.0145 10.0676 28.1068 9.94626C28.4086 9.53126 28.6886 9.09977 28.9336 8.64907C29.0851 8.37704 29.2209 8.09664 29.3527 7.81463C29.7167 7.03039 30.0219 6.21884 30.2567 5.38638C30.3567 5.01923 30.4973 4.64237 30.4258 4.25666C30.2113 4.46953 30.0546 4.73157 29.8954 4.98664C29.4422 5.72462 28.9939 6.46591 28.5335 7.19947C28.1397 7.83874 27.7139 8.45814 27.2486 9.04721C27.1959 9.1139 27.1388 9.17776 27.0847 9.2436C26.758 9.63769 26.4038 10.0097 26.0275 10.3568C25.6664 10.6662 25.2622 10.9197 24.8477 11.1503C24.828 11.1615 24.7881 11.1844 24.7684 11.1957C24.7074 11.221 24.6464 11.2464 24.5849 11.2701C24.576 10.5951 24.5881 9.91933 24.5398 9.24558C24.7331 8.98363 24.8982 8.70323 25.0541 8.41802C25.1915 8.16445 25.3209 7.90694 25.4523 7.65064C25.4864 7.57953 25.521 7.50964 25.5552 7.44012C25.6866 7.17856 25.8127 6.91501 25.9414 6.65269C25.9667 6.59768 25.9928 6.54343 26.0196 6.4904C26.0703 6.38066 26.123 6.27263 26.1759 6.16534C26.2704 5.9649 26.3664 5.7656 26.4632 5.56676C26.5098 5.46842 26.5568 5.37065 26.6014 5.27269C26.6198 5.23492 26.6388 5.19762 26.6581 5.16136C26.7602 4.94529 26.8546 4.72422 26.9863 4.52463C27.0583 4.34859 27.0394 4.15578 27.031 3.97135L26.9979 3.96777C26.996 3.93961 26.9923 3.88338 26.9908 3.85531L26.9618 3.85163C26.9434 3.81386 26.9252 3.77732 26.9071 3.74162C26.6754 3.45189 26.5054 3.12005 26.3065 2.80828C26.1515 2.56489 25.9984 2.32056 25.8336 2.08433L25.8219 2.05259C25.6488 1.81278 25.4889 1.56364 25.3169 1.32345C25.2828 1.27203 25.2479 1.22258 25.2136 1.17322C25.1474 1.07875 25.0799 0.985591 25.0149 0.891588C24.9862 0.850615 24.9585 0.811243 24.9305 0.772248C24.8916 0.716864 24.8522 0.663363 24.8136 0.60958C24.7733 0.552877 24.7328 0.497116 24.6946 0.440413C24.6284 0.359315 24.5612 0.278499 24.4946 0.198625L24.4613 0.1974L24.4581 0.170933C24.4119 0.139567 24.3668 0.107448 24.3226 0.0769299C24.3129 0.0760822 24.2937 0.074481 24.2841 0.0737274C24.1611 0.00939497 24.0161 -0.0195217 23.8799 0.0141987C23.8241 0.0299286 23.7682 0.0463178 23.7164 0.0737274C23.7031 0.0732565 23.677 0.072503 23.6641 0.0721262L23.6589 0.107071C23.6199 0.125532 23.5809 0.144371 23.5428 0.164057L23.536 0.184496C23.3974 0.305908 23.2974 0.4617 23.1885 0.608732C23.1227 0.70396 23.0539 0.796738 22.9868 0.891211C22.9233 0.986438 22.8551 1.07884 22.7892 1.17284C22.6967 1.30782 22.6023 1.44166 22.5086 1.57617C22.4813 1.61554 22.454 1.65491 22.4275 1.69589C22.3122 1.86505 22.1965 2.03375 22.0852 2.20612C21.9365 2.42982 21.7911 2.65569 21.6488 2.88392C21.4688 3.17195 21.3086 3.47412 21.0969 3.74124C21.078 3.77299 21.0596 3.8051 21.041 3.83807C21.0181 3.88667 20.9964 3.93688 20.9735 3.9867C20.9586 4.16595 20.947 4.35311 21.0152 4.52388C21.155 4.73317 21.2487 4.9678 21.3612 5.19197C21.425 5.32695 21.4889 5.4624 21.5544 5.59737C21.6364 5.77049 21.7215 5.94286 21.8039 6.11646C21.8292 6.16949 21.8553 6.22336 21.8818 6.278C21.9148 6.34836 21.9489 6.41909 21.9826 6.49049C22.11 6.75244 22.2365 7.01523 22.3658 7.2768C22.4137 7.37485 22.4623 7.47243 22.5105 7.57124C22.8026 8.14288 23.0822 8.72583 23.4623 9.24614C23.4092 9.91707 23.4406 10.5917 23.3883 11.2626C23.3365 11.2397 23.2855 11.2163 23.2344 11.1947C23.2143 11.1835 23.1741 11.1613 23.1541 11.1505C22.6751 10.8817 22.203 10.5872 21.8085 10.2015C21.5996 9.99506 21.3895 9.78934 21.1982 9.56677C21.117 9.47107 21.0274 9.38319 20.9511 9.28429L20.9386 9.27299C20.8792 9.19547 20.8141 9.12313 20.7534 9.04759C20.3363 8.51805 19.9487 7.96524 19.5907 7.39435C19.0984 6.61294 18.6196 5.82352 18.137 5.03646C17.9678 4.76444 17.8039 4.4845 17.5762 4.25666C17.5042 4.64312 17.6461 5.0196 17.7457 5.38751C17.98 6.2195 18.2861 7.03068 18.6493 7.81538C18.7808 8.09701 18.9173 8.37657 19.0679 8.64859C19.3134 9.09977 19.5931 9.53126 19.8956 9.94579C19.9354 9.99845 19.9767 10.0515 20.0169 10.1061C20.0684 10.1735 20.1238 10.2391 20.1764 10.3074C20.4114 10.5951 20.659 10.873 20.9237 11.1342L20.9285 11.1627L20.9679 11.1635L20.9688 11.1929C20.9824 11.2029 21.009 11.223 21.0225 11.233C21.5292 11.7259 22.1407 12.0907 22.7518 12.4379C22.8465 12.4873 22.9418 12.5356 23.0382 12.5826C23.1375 12.6268 23.2403 12.6621 23.3447 12.6938C23.3452 13.0317 23.335 13.37 23.3355 13.7086C23.0258 13.7014 22.724 13.6146 22.4331 13.5142C21.6356 13.2294 20.9441 12.7252 20.249 12.2559C20.3081 12.395 20.4351 12.4874 20.5195 12.6099C21.0872 13.2893 21.7139 13.9521 22.509 14.3643C22.7597 14.4904 23.0252 14.5817 23.2921 14.6672C23.3528 14.7532 23.2934 14.8633 23.3211 14.9609C23.2965 15.1682 23.3138 15.3784 23.305 15.5872C22.661 15.5482 22.0177 15.3635 21.483 14.9955C21.2544 14.8444 21.0253 14.6865 20.8662 14.4595C20.867 14.4892 20.8694 14.5479 20.8706 14.5773C20.8823 14.5982 20.9064 14.6391 20.918 14.66C21.2113 15.3314 21.7103 15.9207 22.3399 16.2992C22.4472 16.3534 22.5561 16.4061 22.6666 16.4554C22.8256 16.5149 22.988 16.5659 23.1511 16.6157C23.1998 16.6242 23.2483 16.6335 23.2978 16.6435C23.3054 16.9757 23.2951 17.3088 23.2962 17.6419C22.7421 17.6712 22.1965 17.5269 21.6863 17.3228C21.6244 17.2851 21.5605 17.2497 21.4955 17.2216C21.7739 17.7423 22.2379 18.1413 22.7478 18.4261C22.841 18.4651 22.9342 18.5045 23.0283 18.543C23.1127 18.5651 23.197 18.5868 23.2794 18.6177C23.3095 18.9398 23.273 19.2653 23.262 19.5887C23.0403 19.6084 22.8153 19.6137 22.5963 19.5662C22.391 19.5196 22.1774 19.5103 21.9809 19.4304C21.9832 19.4842 21.999 19.5368 22.0391 19.5778C22.2673 19.9233 22.6116 20.1728 22.9673 20.3748C23.0617 20.4211 23.158 20.4636 23.2581 20.4993C23.2658 20.8569 23.2541 21.2149 23.2601 21.5728C23.0324 21.6395 22.7912 21.6552 22.5555 21.6384C22.4875 21.6347 22.4284 21.6006 22.371 21.5696L22.3719 21.5416C22.3586 21.5311 22.332 21.5106 22.3188 21.5002C22.2518 21.4339 22.1842 21.3684 22.1175 21.303C21.508 20.7067 20.9074 20.1018 20.2951 19.5087C20.2096 19.436 20.2493 19.3099 20.2307 19.2134C20.0428 17.9351 19.8347 16.6567 19.733 15.3687C19.6534 15.3265 19.6157 15.4157 19.6241 15.4823C19.6286 15.766 19.584 16.0468 19.5551 16.3288C19.4714 17.0599 19.3827 17.7904 19.2746 18.5184C19.0878 18.3022 18.8704 18.115 18.6744 17.9077C18.6603 16.7767 18.6245 15.6462 18.5563 14.5173C18.5437 14.1319 18.4899 13.749 18.4967 13.3634C18.4767 13.3526 18.4361 13.3308 18.4161 13.3204C18.3289 13.4924 18.336 13.6944 18.2875 13.8797C18.0737 14.8909 17.8833 15.9073 17.7142 16.927C17.6985 16.9219 17.6675 16.911 17.6519 16.9058C17.5041 16.7387 17.3301 16.5973 17.179 16.4341C17.1236 16.3855 17.1713 16.3075 17.1798 16.2509C17.0849 14.3594 16.9283 12.4695 16.772 10.5809C16.7343 10.1929 16.6945 9.80432 16.6832 9.41427C16.629 9.40627 16.5656 9.42793 16.5727 9.49499C16.5611 10.0065 16.4863 10.5142 16.443 11.0245C16.32 12.4708 16.1798 13.9163 16.0926 15.3651C15.8613 15.2113 15.6897 14.985 15.4747 14.8107C15.4196 14.7488 15.3032 14.703 15.3357 14.6037C15.4127 14.2859 15.381 13.9562 15.396 13.6327C15.3983 13.1113 15.3955 12.5826 15.2782 12.0719C15.2541 11.9474 15.1922 11.8344 15.0817 11.7686C14.9149 11.869 14.8712 12.0695 14.8185 12.2426C14.6687 12.7839 14.5534 13.3347 14.4417 13.8847C14.2737 13.7902 14.1327 13.6564 13.97 13.554C14.2935 13.1338 14.4345 12.5902 14.3661 12.065C14.3271 11.9063 14.2897 11.7464 14.223 11.597C13.988 11.0305 13.4698 10.603 12.8788 10.4524C12.4654 10.3567 12.0222 10.3788 11.6318 10.5512C11.5867 10.5696 11.5422 10.5902 11.4975 10.6107C11.0913 10.8196 10.7626 11.1642 10.5719 11.5793C10.4996 11.7461 10.4518 11.9215 10.4116 12.0987C10.3582 12.5511 10.4397 13.0224 10.6764 13.4149C10.9697 13.9191 11.4952 14.2614 12.0653 14.3654C12.3232 14.3908 12.5836 14.3799 12.8366 14.3248C12.9749 14.2807 13.1102 14.2276 13.2425 14.1677C13.3083 14.1276 13.3746 14.0878 13.4406 14.048C13.527 14.1954 13.6684 14.3128 13.7194 14.4791C13.2236 14.5724 12.7306 14.6845 12.2437 14.8178C12.0705 14.87 11.8696 14.9138 11.7692 15.0817C11.8793 15.2694 12.1136 15.2871 12.3064 15.3249C12.7443 15.3851 13.1899 15.4084 13.631 15.3979C13.9268 15.3919 14.2229 15.3802 14.519 15.3751C14.7372 15.594 14.942 15.8294 15.1562 16.0544C15.1691 16.0656 15.1952 16.0881 15.208 16.0994C15.0831 16.1079 14.9586 16.1139 14.834 16.1175L14.8083 16.134C14.3375 16.1504 13.8693 16.2042 13.3993 16.2348C12.4886 16.3184 11.5762 16.3879 10.6657 16.4775C10.2752 16.5124 9.88598 16.5667 9.49347 16.5718C9.42716 16.5638 9.40983 16.6293 9.41548 16.6827C10.3437 16.7261 11.2668 16.8446 12.1945 16.9021C13.2243 16.9849 14.2539 17.0656 15.2857 17.1231C15.6052 17.1601 15.9321 17.1411 16.2479 17.1998C16.4271 17.3753 16.6019 17.557 16.7743 17.7401C15.7554 17.9064 14.743 18.1066 13.7321 18.315C13.5951 18.3459 13.444 18.342 13.321 18.4167C13.3319 18.4367 13.3536 18.4761 13.3645 18.4958C13.957 18.501 14.5473 18.5726 15.1399 18.5878C15.976 18.6353 16.8138 18.6549 17.6506 18.6705C17.7015 18.6673 17.7334 18.7103 17.7687 18.7416C17.9588 18.928 18.1312 19.1341 18.3344 19.3069C17.8539 19.3599 17.3761 19.4379 16.8952 19.4876C16.4107 19.5378 15.9282 19.6206 15.4401 19.6263C15.3791 19.6246 15.3393 19.6749 15.3726 19.7327C15.5851 19.7384 15.7956 19.7673 16.0074 19.7866C16.9025 19.8934 17.7964 20.012 18.6872 20.151C18.8703 20.1892 19.0676 20.1799 19.242 20.2514C19.5541 20.5499 19.8535 20.8629 20.1537 21.1746C20.1665 21.185 20.1917 21.2068 20.2047 21.2176L20.2079 21.2389C20.2248 21.253 20.2584 21.2807 20.2754 21.2948C20.2854 21.3061 20.3054 21.3281 20.3156 21.3394C20.6555 21.695 21.0026 22.0438 21.349 22.3932C21.4446 22.5 21.5671 22.586 21.6414 22.711C21.6526 22.9513 21.6101 23.1952 21.5221 23.4193C21.1966 23.4157 20.8712 23.4254 20.5457 23.417C20.5108 23.2591 20.4485 23.1096 20.3758 22.9662C20.1745 22.6107 19.925 22.2667 19.5799 22.0385C19.5393 21.9984 19.4872 21.9791 19.4312 21.9807C19.4569 22.0651 19.4943 22.1466 19.5048 22.2361C19.5369 22.4888 19.6141 22.7364 19.6052 22.9935C19.6068 23.1377 19.5783 23.2799 19.5542 23.4222C19.4011 23.4299 19.2479 23.4266 19.095 23.4314C18.9446 23.4511 18.7892 23.4599 18.6406 23.4254C18.6248 23.3321 18.6033 23.2409 18.5836 23.1501C18.5377 23.0128 18.4855 22.8782 18.4268 22.7464C18.1424 22.2365 17.7438 21.7725 17.2232 21.4949C17.2521 21.5588 17.2862 21.623 17.3235 21.6845C17.5526 22.2421 17.69 22.8468 17.6365 23.4523C17.3191 23.4511 17.0013 23.4575 16.684 23.4539C16.6643 23.3511 16.6382 23.2498 16.6153 23.1494C16.5643 22.975 16.5105 22.8019 16.4425 22.6339C16.3979 22.5342 16.3502 22.437 16.3007 22.3407C16.0166 21.8513 15.5891 21.4576 15.1171 21.1526C14.948 21.0377 14.7519 20.9739 14.5772 20.8698C14.5482 20.8687 14.49 20.8662 14.4612 20.865C14.6877 21.024 14.8452 21.2535 14.9963 21.4817C15.0389 21.5439 15.0791 21.6086 15.1189 21.6745C15.4331 22.2141 15.5805 22.8384 15.5921 23.4602C15.2988 23.4606 15.0059 23.4534 14.713 23.4453C14.5552 22.862 14.3089 22.2975 13.9263 21.8254C13.5326 21.3244 13.063 20.8882 12.5703 20.4864C12.4639 20.4089 12.3819 20.2972 12.2569 20.2486C12.31 20.3591 12.3952 20.449 12.4628 20.5515C12.7102 20.8998 12.9376 21.2622 13.1485 21.6342C13.4595 22.1818 13.678 22.7877 13.7323 23.4184C13.3884 23.4179 13.0448 23.4168 12.701 23.4128C12.6913 23.3525 12.682 23.2966 12.6672 23.24C12.6323 23.1556 12.5977 23.0721 12.5635 22.9893C12.5197 22.9098 12.4784 22.8303 12.439 22.7502C12.0915 22.1396 11.7271 21.5281 11.2346 21.0214C11.2246 21.0082 11.204 20.9813 11.1939 20.9677L11.1754 20.9657C11.163 20.9532 11.1377 20.9284 11.1253 20.9158L11.1236 20.8974C11.1103 20.8869 11.0842 20.866 11.0709 20.8552C10.8255 20.619 10.5736 20.39 10.3087 20.1754C10.2404 20.1228 10.1753 20.0674 10.1074 20.0155C10.0533 19.9757 10.0005 19.9339 9.94711 19.8949C9.50044 19.5671 9.0307 19.2702 8.54305 19.0078C8.31435 18.8869 8.08254 18.7721 7.8479 18.6639C7.70049 18.596 7.55345 18.5277 7.40396 18.4651C6.72935 18.1674 6.03109 17.9263 5.32237 17.7254C4.97639 17.6307 4.62091 17.5064 4.25769 17.5752C4.5935 17.9022 5.01906 18.1131 5.40988 18.3651C6.64212 19.1291 7.91054 19.8467 9.04746 20.7523C9.13186 20.8158 9.20778 20.8897 9.29293 20.9536C9.38731 21.0316 9.47416 21.1179 9.5677 21.1975C9.76984 21.3695 9.9554 21.5595 10.1434 21.7467C10.579 22.175 10.9004 22.7012 11.1957 23.2316C11.2217 23.2919 11.2476 23.3533 11.2713 23.4164C10.5963 23.4241 9.92045 23.4128 9.24715 23.461C8.98445 23.2682 8.70431 23.1018 8.41825 22.9464C8.17522 22.8154 7.92938 22.6896 7.68259 22.5651C7.60224 22.5241 7.52189 22.4844 7.44155 22.4454C7.08154 22.269 6.72228 22.0902 6.35963 21.9195C6.29521 21.887 6.23059 21.8561 6.16625 21.8255C5.96628 21.7303 5.76612 21.6347 5.5669 21.5374C5.5231 21.5165 5.47967 21.4961 5.43587 21.478C5.39857 21.4575 5.36155 21.4382 5.32416 21.4201C5.28036 21.3992 5.23694 21.3788 5.19314 21.3602C4.96895 21.2474 4.73385 21.1541 4.52455 21.0139C4.34906 20.942 4.15653 20.9617 3.97219 20.9697L3.97021 21.0027C3.9412 21.0047 3.88384 21.0087 3.8553 21.0107L3.85247 21.0392C3.81517 21.0565 3.77768 21.0746 3.74076 21.0939C3.5226 21.2723 3.27516 21.4088 3.03524 21.5555C2.74277 21.7302 2.45878 21.9187 2.17309 22.1047C2.10442 22.151 2.03443 22.1959 1.96576 22.2437C1.87543 22.3032 1.78585 22.3652 1.69543 22.4258C1.57288 22.5122 1.44789 22.5957 1.32534 22.683C1.27429 22.7163 1.22417 22.7516 1.17312 22.7869C1.07949 22.8536 0.986335 22.9203 0.891952 22.9862C0.852485 23.0119 0.813112 23.0399 0.773739 23.0682C0.582148 23.2096 0.381703 23.3406 0.206785 23.5037C0.1968 23.5166 0.177491 23.5419 0.167506 23.5548C0.137364 23.5949 0.106751 23.6344 0.0762319 23.6765C0.0758551 23.6865 0.0745364 23.7058 0.0742538 23.7159C0.0116148 23.8272 -0.00486918 23.9565 0.00115924 24.0839C0.0228239 24.1498 0.0401556 24.2205 0.0738771 24.284C0.0746306 24.2937 0.0766087 24.3126 0.0778332 24.3222C0.109577 24.3648 0.140943 24.4094 0.171085 24.4552L0.185497 24.4652C0.353068 24.6524 0.574424 24.7773 0.772138 24.9301C0.811888 24.9565 0.851732 24.9839 0.891482 25.0128C0.986712 25.0771 1.07996 25.1446 1.17312 25.2128C1.43705 25.3941 1.69901 25.5789 1.96624 25.756C2.34301 26.0088 2.72308 26.2579 3.11248 26.4908C3.32734 26.6198 3.54559 26.7463 3.74038 26.9055C3.77702 26.9228 3.81395 26.9408 3.85087 26.9597L3.85652 26.9902C3.88516 26.9914 3.94167 26.9947 3.97031 26.9959L3.97191 27.0296C4.15672 27.0376 4.34925 27.0573 4.52473 26.9858C4.77586 26.8219 5.05589 26.7107 5.32388 26.5793C5.38859 26.5463 5.45358 26.5149 5.5182 26.4837C5.71827 26.3893 5.91758 26.2936 6.11652 26.1969C6.15994 26.1752 6.20327 26.1547 6.24754 26.1354C6.30133 26.1081 6.35521 26.0816 6.40946 26.0571C6.46372 26.0298 6.5175 26.0037 6.57223 25.9791C6.90605 25.8188 7.23752 25.6524 7.57144 25.4917C7.60836 25.4713 7.64567 25.452 7.68316 25.4339C8.21874 25.1615 8.76102 24.894 9.248 24.5388C9.91895 24.5918 10.5935 24.5605 11.264 24.6124C11.2415 24.663 11.2179 24.714 11.1945 24.7667C11.1837 24.7867 11.1616 24.8269 11.1507 24.847C10.9338 25.2363 10.6983 25.6176 10.4122 25.9606C10.0676 26.354 9.68346 26.7131 9.28332 27.0498L9.27485 27.0623C9.19695 27.1209 9.12414 27.1864 9.04746 27.2471C8.32311 27.8251 7.54318 28.3282 6.75261 28.8103C6.27411 29.1088 5.7924 29.4016 5.31107 29.6953C4.95106 29.9244 4.56448 30.1232 4.25722 30.4245C4.46407 30.4571 4.67582 30.4466 4.87843 30.3928C5.86917 30.1429 6.83786 29.8043 7.76473 29.3739C8.05437 29.243 8.33931 29.1008 8.61926 28.9501C9.08015 28.6986 9.52324 28.4153 9.94711 28.1052C10.0005 28.0638 10.0533 28.0225 10.1071 27.9835C10.1753 27.9308 10.2408 27.8762 10.3087 27.8244C10.5921 27.5982 10.8532 27.3471 11.1203 27.1024L11.1247 27.073H11.1649L11.1637 27.0317L11.1934 27.0325C11.2034 27.0189 11.2239 26.9912 11.2345 26.9774C11.6985 26.501 12.0508 25.9309 12.377 25.3552C12.3976 25.319 12.4184 25.2837 12.4389 25.2499C12.4787 25.1683 12.52 25.0888 12.5626 25.0104C12.614 24.895 12.659 24.7769 12.6951 24.6568C13.0335 24.6549 13.3713 24.6648 13.7097 24.6657C13.6877 25.1706 13.502 25.6528 13.2867 26.1047C12.9962 26.6852 12.6201 27.2164 12.2568 27.7515C12.3971 27.6932 12.4879 27.5647 12.6113 27.4807C13.2907 26.913 13.9527 26.2862 14.3658 25.4916C14.4891 25.2365 14.5919 24.9716 14.6656 24.6986C14.7106 24.6848 14.7564 24.6792 14.8029 24.6812C15.064 24.7009 15.3265 24.6869 15.588 24.6953C15.5535 25.2645 15.4072 25.8303 15.1188 26.3251C15.079 26.3895 15.0388 26.4537 14.9962 26.5179C14.8455 26.7461 14.6877 26.9752 14.4606 27.1342C14.4903 27.1335 14.549 27.131 14.5787 27.1298C14.7178 27.0415 14.8765 26.9904 15.0179 26.9064C15.3321 26.7244 15.6149 26.4919 15.8673 26.2314C16.2807 25.8192 16.5286 25.2684 16.647 24.7028C16.9786 24.6952 17.3108 24.7052 17.6427 24.7044C17.6727 25.258 17.5281 25.804 17.3235 26.3146C17.2862 26.3756 17.2517 26.4379 17.2232 26.5054C17.7435 26.2262 18.1425 25.7626 18.4272 25.2528C18.5128 25.0768 18.559 24.886 18.6354 24.7068C18.895 24.7217 19.1561 24.6992 19.4151 24.7262C19.473 24.7294 19.5316 24.7346 19.5903 24.7406C19.6095 24.9628 19.6153 25.1885 19.5666 25.4083C19.5204 25.612 19.5123 25.8241 19.4308 26.0193C19.4851 26.0153 19.5381 26.0008 19.578 25.9623C19.9242 25.7341 20.1746 25.3891 20.3767 25.0327C20.4237 24.9379 20.4658 24.8406 20.5019 24.7423C20.8587 24.735 21.2159 24.7467 21.5731 24.7403C21.6418 24.968 21.6567 25.2099 21.6397 25.4469C21.6393 25.5229 21.5972 25.5875 21.5457 25.6413C21.4766 25.7056 21.4107 25.7743 21.3444 25.8426C20.7176 26.4782 20.0912 27.1146 19.4621 27.7469C18.6566 27.8369 17.8579 27.9855 17.0527 28.082C16.4923 28.1499 15.933 28.2358 15.3694 28.2688C15.3674 28.286 15.3634 28.3206 15.3614 28.3379C15.4662 28.4106 15.6061 28.3628 15.7257 28.3812C16.659 28.4773 17.5911 28.5902 18.5201 28.7255C18.3038 28.9115 18.1171 29.1285 17.9109 29.3254C17.6092 29.3382 17.3071 29.3286 17.0054 29.3382C16.8743 29.3547 16.7426 29.3515 16.6112 29.3551C15.8056 29.3675 15.0013 29.419 14.197 29.4611C13.9194 29.4812 13.6421 29.5095 13.3637 29.5038C13.3533 29.5239 13.3319 29.5641 13.3215 29.5842C13.4532 29.6581 13.6107 29.6548 13.7554 29.689C14.8088 29.9076 15.8658 30.1128 16.9282 30.2861C16.9226 30.3013 16.9121 30.3322 16.9068 30.3475C16.7409 30.4961 16.599 30.6689 16.4359 30.8212C16.3877 30.8754 16.309 30.8276 16.2511 30.8203C14.5215 30.9056 12.7944 31.0494 11.0672 31.1863C10.5159 31.2306 9.96661 31.3 9.41388 31.3174C9.40578 31.3676 9.42273 31.4029 9.46484 31.4242C10.1804 31.4531 10.8911 31.5559 11.6055 31.609C12.8583 31.7142 14.1097 31.8347 15.3649 31.9075C15.1941 32.1623 14.9427 32.3514 14.7534 32.5933C14.6642 32.7428 14.4926 32.6149 14.3617 32.6218C13.6642 32.6021 12.9608 32.572 12.2684 32.6812C12.0868 32.7153 11.8722 32.7415 11.7694 32.9175C11.8691 33.0854 12.0712 33.1284 12.2443 33.1818C12.7855 33.3316 13.3356 33.4469 13.8856 33.559C13.7915 33.7266 13.6573 33.8671 13.5545 34.03C13.3741 33.8938 13.1717 33.7913 12.9598 33.7141C12.9187 33.701 12.8779 33.6881 12.8373 33.676C12.5844 33.6174 12.3233 33.6089 12.0659 33.6343C11.6035 33.7238 11.1623 33.954 10.8633 34.3237C10.4524 34.8029 10.3017 35.4855 10.4552 36.0965C10.4901 36.205 10.5287 36.3135 10.5728 36.4203C10.5825 36.4404 10.6026 36.481 10.6122 36.5014C10.8183 36.9097 11.1659 37.2359 11.5797 37.4288C11.6862 37.4701 11.7942 37.5095 11.9035 37.5449C11.9695 37.5565 12.0353 37.5694 12.1009 37.5879C12.6846 37.6634 13.3038 37.4898 13.7368 37.0845C14.0747 36.7897 14.28 36.3699 14.366 35.9347C14.3929 35.6764 14.3808 35.4156 14.3258 35.1625C14.2575 34.9516 14.1747 34.7439 14.0494 34.5603C14.1887 34.4606 14.3326 34.3654 14.458 34.2481C14.5873 34.7483 14.6725 35.2597 14.8187 35.7563C14.8718 35.929 14.9144 36.1308 15.0823 36.2312C15.2462 36.1371 15.2804 35.942 15.3121 35.7728C15.4411 35.0159 15.3928 34.2461 15.3768 33.4836C15.6054 33.2465 15.867 33.0344 16.098 32.7965C16.2012 34.232 16.3262 35.6659 16.4555 37.0994C16.4945 37.5666 16.5644 38.0322 16.5724 38.502C16.56 38.5706 16.6306 38.5851 16.6838 38.5866C16.7151 37.7937 16.8221 37.0057 16.871 36.2139C16.9759 34.9283 17.0735 33.6427 17.1485 32.3551C17.1585 32.1542 17.1639 31.9493 17.2004 31.7532C17.3594 31.5833 17.5383 31.4334 17.6942 31.2607C17.707 31.255 17.7323 31.2438 17.7452 31.2381C17.9014 32.218 18.094 33.1923 18.2961 34.1638C18.3394 34.3342 18.3334 34.5201 18.4162 34.6792C18.4363 34.6688 18.4769 34.6475 18.4968 34.637C18.4893 34.2642 18.5419 33.8941 18.5543 33.5222C18.6125 32.5319 18.6523 31.5399 18.6667 30.548C18.6776 30.4484 18.6371 30.3226 18.7253 30.2507C18.901 30.072 19.0894 29.9064 19.2589 29.7216C19.2722 29.7204 19.2992 29.7176 19.3127 29.7164C19.3558 30.1013 19.4205 30.4838 19.4606 30.8699C19.5216 31.4427 19.6153 32.0145 19.6317 32.5909C19.6494 32.6368 19.6827 32.6504 19.7321 32.6315C19.8249 31.4496 20.0114 30.2765 20.1824 29.1042C20.2118 28.9664 20.1861 28.7977 20.3058 28.6984C21.009 27.9969 21.7325 27.3159 22.434 26.6129C22.5261 26.5281 22.6015 26.4228 22.7113 26.3598C22.9519 26.3485 23.1958 26.3911 23.4203 26.4787C23.4158 26.8045 23.4284 27.1303 23.417 27.4566C23.3581 27.4698 23.2998 27.4847 23.2419 27.5032C23.1492 27.5397 23.0575 27.5807 22.9676 27.6245C22.6128 27.8265 22.2681 28.0752 22.0403 28.4204C21.9992 28.4589 21.9832 28.5127 21.9812 28.5698C22.1567 28.4951 22.348 28.4842 22.5328 28.4453C22.8265 28.3782 23.1334 28.3794 23.4263 28.4501C23.4312 28.614 23.4251 28.7783 23.4322 28.9431C23.4431 29.0829 23.4664 29.2271 23.4242 29.3657C23.3969 29.3681 23.3423 29.373 23.3149 29.3753C23.2599 29.3894 23.2048 29.4042 23.1498 29.4184L23.1249 29.4304C22.9176 29.4899 22.7194 29.5799 22.5379 29.6964C22.1173 29.9749 21.7328 30.3264 21.4954 30.7784C21.5604 30.7474 21.6243 30.7144 21.6855 30.6775C22.2435 30.4481 22.8478 30.3119 23.4533 30.3638C23.4528 30.6811 23.4585 30.9989 23.4545 31.3167C23.3524 31.3355 23.252 31.3617 23.1511 31.3862C22.8346 31.4742 22.5208 31.5855 22.242 31.7622C21.8044 32.0378 21.4512 32.4315 21.1681 32.8607C21.0464 33.0354 20.9797 33.2404 20.8708 33.4222C20.8696 33.4516 20.8672 33.5111 20.8664 33.5405C21.0254 33.313 21.2541 33.1551 21.4832 33.0045C21.5458 32.9611 21.6105 32.921 21.6756 32.8823C22.2155 32.5686 22.8395 32.4196 23.4614 32.4091C23.4618 32.7023 23.4555 32.9957 23.4462 33.2893C23.3738 33.3094 23.3023 33.3319 23.2301 33.3532C22.9838 33.4303 22.7411 33.5208 22.5093 33.6356C21.7145 34.0474 21.0882 34.7103 20.5206 35.3893C20.4358 35.5119 20.308 35.6034 20.2493 35.7441C20.4475 35.6291 20.6226 35.4793 20.8159 35.3567C21.6009 34.8325 22.4575 34.3399 23.4198 34.2687C23.4189 34.6123 23.4181 34.9558 23.4141 35.2993C23.3558 35.3065 23.2987 35.3193 23.2421 35.3351C23.1581 35.368 23.0742 35.4021 22.991 35.4378C22.9115 35.4797 22.832 35.5214 22.7517 35.5624C22.6138 35.64 22.4768 35.7191 22.3406 35.7994C22.2413 35.8601 22.1414 35.9195 22.0433 35.9823C21.6809 36.2125 21.3313 36.4659 21.0237 36.7669C21.0099 36.777 20.9823 36.797 20.9682 36.8071L20.969 36.8365L20.9288 36.8372L20.9272 36.867C20.9143 36.8775 20.8886 36.8984 20.8758 36.9084C20.6346 37.1623 20.3968 37.4193 20.1767 37.6922C20.124 37.7593 20.0689 37.8247 20.0167 37.8939C19.474 38.6013 19.02 39.3747 18.6491 40.1855C18.2916 40.9581 17.9886 41.756 17.7564 42.5755C17.6547 42.9552 17.5024 43.3433 17.5764 43.7434C17.7443 43.5774 17.8757 43.379 18.0018 43.1814C18.4024 42.5394 18.7885 41.8889 19.1907 41.2482C19.5363 40.6878 19.8834 40.1273 20.2707 39.5941C20.427 39.3767 20.588 39.1626 20.7536 38.9529C20.8179 38.8693 20.8898 38.7922 20.9541 38.7098C21.1766 38.452 21.4036 38.1976 21.6464 37.9585C22.11 37.4651 22.6878 37.0999 23.28 36.7818C23.3253 36.7628 23.3716 36.746 23.4178 36.7307C23.4254 37.4048 23.4146 38.0798 23.4624 38.7532C23.2704 39.0155 23.104 39.296 22.9482 39.5816C22.7971 39.8616 22.6537 40.1452 22.5103 40.4297C22.3464 40.7619 22.1832 41.0946 22.0217 41.4285C21.996 41.4811 21.9702 41.5354 21.9446 41.5908C21.9346 41.6113 21.9145 41.6527 21.9044 41.6732C21.871 41.7431 21.8373 41.813 21.804 41.8846C21.714 42.0662 21.6289 42.2501 21.5404 42.4325C21.5304 42.4534 21.511 42.4952 21.5014 42.516C21.475 42.5687 21.4484 42.6221 21.4223 42.6767C21.4018 42.7189 21.3812 42.7623 21.3613 42.8077C21.2484 43.0311 21.1554 43.2665 21.0153 43.4762C20.9438 43.6514 20.9626 43.8438 20.9711 44.029L21.0052 44.0294C21.0064 44.0579 21.0093 44.115 21.0105 44.1439L21.041 44.1487C21.0587 44.1845 21.0767 44.2214 21.0952 44.2596C21.2241 44.4163 21.3306 44.5898 21.4363 44.7638C21.644 45.1137 21.8593 45.4597 22.0896 45.7959L22.098 45.8313C22.1222 45.857 22.1471 45.8843 22.1724 45.9132L22.1808 45.9478C22.3869 46.2379 22.5833 46.5355 22.7887 46.8272C22.8554 46.9204 22.9233 47.0136 22.988 47.1101C23.0944 47.2596 23.2037 47.407 23.3074 47.5593C23.3732 47.64 23.4404 47.7203 23.5079 47.8015L23.5404 47.8028L23.5449 47.8297C23.5899 47.8591 23.6341 47.8891 23.6787 47.9229C23.6883 47.9237 23.7073 47.9252 23.7164 47.9261C23.7687 47.9618 23.8349 47.9663 23.8968 47.9771L23.9016 47.9996C23.9684 47.998 24.0354 47.998 24.103 48L24.1047 47.9767C24.1656 47.9651 24.2328 47.9647 24.2842 47.9249C24.2939 47.9246 24.3139 47.923 24.3236 47.9226C24.3674 47.8892 24.4115 47.8591 24.4569 47.8298L24.4666 47.8153C24.5088 47.7739 24.5506 47.733 24.5919 47.6924C24.7378 47.5019 24.8727 47.3035 25.015 47.1106C25.0793 47.0142 25.1476 46.9209 25.2138 46.8269C25.2475 46.7763 25.2822 46.7269 25.3159 46.6783C25.3753 46.5931 25.4344 46.5083 25.4935 46.4244C25.5204 46.3834 25.5477 46.3424 25.5754 46.3043C25.6358 46.214 25.6968 46.1251 25.7563 46.0352C25.7759 46.0055 25.796 45.9769 25.8165 45.95C25.842 45.907 25.8688 45.8664 25.8961 45.8271C26.1853 45.3968 26.4534 44.9525 26.7234 44.5098C26.7824 44.4241 26.8419 44.3394 26.9073 44.2594C26.9254 44.2212 26.944 44.1839 26.9624 44.1482L26.9816 44.1433C26.9942 44.0972 27.0094 44.0529 27.0275 44.0112C27.0451 43.832 27.0547 43.6456 26.9873 43.476C26.8635 43.292 26.7779 43.0871 26.6807 42.8899C26.6601 42.8448 26.6393 42.8003 26.6196 42.7585C26.477 42.468 26.34 42.1747 26.1986 41.8843C26.1601 41.8019 26.1211 41.7208 26.0817 41.6408C25.9025 41.2616 25.716 40.8867 25.5321 40.5103C25.5048 40.4556 25.4778 40.4018 25.4516 40.3491C25.3211 40.0921 25.1908 39.8357 25.0547 39.5826C24.8988 39.2962 24.7316 39.0162 24.5397 38.7526C24.5947 38.0816 24.5601 37.4071 24.6147 36.7365C24.6658 36.7582 24.7168 36.7819 24.7686 36.8064C24.9329 36.896 25.0958 36.9889 25.2556 37.0877C25.8514 37.4352 26.3504 37.9185 26.8037 38.4336C26.8828 38.5265 26.9692 38.6132 27.0476 38.7081C27.1106 38.7925 27.185 38.8684 27.2489 38.9535C27.7028 39.5281 28.1199 40.1315 28.5048 40.7545C28.9604 41.4793 29.4039 42.2118 29.8515 42.9418C30.026 43.2198 30.1914 43.5098 30.4261 43.7432C30.4642 43.5223 30.4434 43.2969 30.3848 43.0824C30.1654 42.2343 29.8893 41.399 29.5362 40.5971C29.478 40.4577 29.4133 40.3219 29.3526 40.1849C28.9468 39.2966 28.4401 38.4525 27.8259 37.6924C27.6235 37.4381 27.3993 37.2034 27.1826 36.962L27.1546 36.9568V36.917L27.1139 36.9174L27.1147 36.8764L27.0738 36.8776L27.075 36.8363L27.0468 36.8367C27.0331 36.8238 27.0066 36.7981 26.9934 36.7852L26.9943 36.7571L26.9629 36.7551C26.4643 36.2646 25.8552 35.9074 25.2514 35.5635C25.1709 35.5217 25.0911 35.4803 25.0119 35.4385C24.8962 35.3871 24.7784 35.3413 24.658 35.3055C24.6567 34.9668 24.6663 34.6289 24.6672 34.2914C24.9955 34.2998 25.314 34.3947 25.621 34.5052C26.3972 34.7932 27.0734 35.2842 27.7528 35.7446C27.6937 35.6047 27.5675 35.512 27.4828 35.3906C26.9151 34.7105 26.288 34.0476 25.4924 33.635C25.2506 33.5149 24.9962 33.4238 24.7395 33.3429C24.6512 33.3252 24.6841 33.2179 24.6769 33.1565C24.7106 32.9102 24.6853 32.6608 24.697 32.4136C25.355 32.4507 26.0099 32.6463 26.5531 33.0264C26.7693 33.1718 26.985 33.3236 27.136 33.5406C27.1353 33.5113 27.1328 33.4534 27.1317 33.4241C27.0277 33.2489 26.9633 33.0533 26.8488 32.8841C26.5439 32.4125 26.1513 31.9854 25.6623 31.7014C25.4068 31.5604 25.1301 31.4656 24.8512 31.3844C24.8018 31.374 24.7532 31.3648 24.7045 31.3567C24.6973 31.0237 24.7073 30.6911 24.7058 30.3588C25.2599 30.3295 25.8063 30.4717 26.3161 30.6778C26.3771 30.7143 26.4402 30.7472 26.5064 30.7782C26.2281 30.2584 25.7657 29.8579 25.2545 29.5758C25.2337 29.5661 25.1923 29.5468 25.1714 29.5368C25.0215 29.4673 24.8584 29.4339 24.7089 29.366C24.7142 29.047 24.7153 28.7288 24.7403 28.411C24.9649 28.3913 25.1927 28.3857 25.4141 28.4355C25.6161 28.4804 25.827 28.4893 26.0207 28.5696C26.0194 28.5134 26.0027 28.4604 25.9637 28.4222C25.7351 28.0771 25.3912 27.8268 25.0355 27.6259C24.9403 27.5777 24.8431 27.5347 24.7434 27.4997C24.737 27.1422 24.7478 26.7851 24.7417 26.4278C24.9696 26.3591 25.211 26.3443 25.4472 26.3611C25.5244 26.36 25.5895 26.4029 25.6425 26.456C25.7208 26.5379 25.8035 26.6163 25.8847 26.6966C26.4746 27.2719 27.0523 27.8593 27.6468 28.4297C27.6814 28.4638 27.7172 28.4985 27.7489 28.5391C27.8385 29.3454 27.988 30.1452 28.0845 30.952C28.1511 31.51 28.2392 32.0665 28.268 32.6281C28.3254 32.6611 28.3753 32.6201 28.3749 32.5591C28.3769 32.1416 28.4452 31.729 28.489 31.3148C28.5577 30.703 28.6381 30.0927 28.7272 29.484C28.9161 29.6961 29.1298 29.885 29.3271 30.0899C29.3396 30.3784 29.3315 30.6672 29.3391 30.9564C29.3705 31.5567 29.3648 32.1596 29.4086 32.7603C29.4239 33.3863 29.4974 34.0102 29.5054 34.6365C29.5251 34.6473 29.5649 34.6691 29.5846 34.6799C29.6616 34.5481 29.6561 34.3886 29.6907 34.2443C29.91 33.1909 30.1141 32.1339 30.2877 31.0721C30.3033 31.0781 30.3347 31.0893 30.3504 31.095C30.499 31.2601 30.6709 31.4028 30.8232 31.5655C30.8787 31.6116 30.8296 31.69 30.822 31.7495C30.9076 33.4795 31.0511 35.2074 31.1884 36.9345C31.2327 37.4857 31.3017 38.0345 31.3196 38.5873C31.4975 38.5978 31.4131 38.3688 31.436 38.2623C31.6119 36.3873 31.7903 34.5106 31.9097 32.6316C32.1664 32.8169 32.3676 33.0675 32.6147 33.266C32.73 33.3451 32.6276 33.4921 32.6276 33.6019C32.5971 34.3118 32.5746 35.0285 32.6835 35.734C32.718 35.9147 32.7438 36.1297 32.9201 36.2313C33.0957 36.124 33.1354 35.9099 33.1914 35.7291C33.3372 35.1963 33.4513 34.6556 33.561 34.1147C33.7281 34.2092 33.8695 34.3425 34.0319 34.4458C33.9592 34.5451 33.8944 34.6503 33.8342 34.7584C33.648 35.1196 33.5903 35.5334 33.6361 35.9355C33.6705 36.0714 33.7014 36.2095 33.7542 36.3413C34.0013 37.0018 34.6292 37.4848 35.3235 37.5876C35.5159 37.6053 35.71 37.6072 35.9028 37.5884C36.0796 37.549 36.2555 37.5017 36.4215 37.4273C36.442 37.4176 36.4829 37.398 36.5034 37.3883C36.912 37.1818 37.2382 36.8343 37.4307 36.4205C37.7786 35.6789 37.5927 34.7432 37.0069 34.1759C36.7152 33.8907 36.3343 33.713 35.9366 33.6344C35.6364 33.6038 35.33 33.6211 35.0411 33.713C34.8746 33.7781 34.7103 33.8508 34.5612 33.9513C34.4612 33.8115 34.3684 33.666 34.2479 33.5431C34.8104 33.398 35.3874 33.3072 35.9401 33.1253C36.0503 33.085 36.176 33.0345 36.223 32.9176C36.1728 32.7982 36.0479 32.75 35.9318 32.7231C35.4312 32.6014 34.9129 32.617 34.4022 32.5876L34.3761 32.6053C34.0789 32.6021 33.7823 32.621 33.4854 32.6246C33.43 32.5905 33.3927 32.5351 33.3489 32.49C33.176 32.2843 32.9788 32.1015 32.804 31.8982C32.925 31.8902 33.0463 31.8842 33.1685 31.8822L33.1938 31.8657C34.4438 31.7926 35.69 31.6648 36.9379 31.5608C37.461 31.5183 37.9816 31.4391 38.5067 31.4278C38.5726 31.4358 38.5923 31.3684 38.5891 31.3177C38.4413 31.3093 38.2929 31.3121 38.1464 31.2941C36.0858 31.1089 34.0223 30.9506 31.958 30.8256C31.8728 30.8087 31.7647 30.8392 31.7077 30.7569C31.5489 30.5894 31.3843 30.4283 31.2284 30.2591C32.2469 30.0932 33.2594 29.8931 34.2697 29.6847C34.4068 29.6529 34.5566 29.6553 34.6815 29.5842C34.6708 29.5642 34.6489 29.524 34.6382 29.5039C34.4268 29.5051 34.2159 29.4966 34.0062 29.4762C32.7893 29.395 31.5703 29.3489 30.3512 29.3292C30.2998 29.3312 30.2685 29.2861 30.2343 29.2585C30.0463 29.0718 29.8724 28.8692 29.6727 28.6953C30.1516 28.635 30.6293 28.5639 31.1094 28.5117C31.5928 28.4623 32.074 28.3787 32.561 28.3739C32.624 28.3803 32.6437 28.3136 32.641 28.265C32.1279 28.2461 31.62 28.1621 31.1106 28.1027C30.4108 28.0183 29.715 27.9059 29.0178 27.8058C28.9174 27.7885 28.7993 27.7961 28.7238 27.7178C28.4032 27.3955 28.0833 27.0725 27.7696 26.7439C27.7567 26.7335 27.7309 26.7125 27.718 26.7017L27.7132 26.6829C27.3461 26.3104 26.9824 25.9348 26.6128 25.5652C26.5296 25.4721 26.4219 25.3981 26.3616 25.2884C26.3487 25.0477 26.393 24.8042 26.4806 24.5805C26.8061 24.5841 27.1319 24.5725 27.4573 24.5837C27.4918 24.7408 27.5545 24.8899 27.6269 25.0337C27.8282 25.3893 28.0781 25.7335 28.4236 25.9618C28.4626 25.9999 28.5156 26.016 28.571 26.0201C28.5456 25.9357 28.5087 25.8541 28.4983 25.7673C28.4658 25.5126 28.3882 25.2628 28.3975 25.0044C28.3959 24.8598 28.4244 24.7183 28.4485 24.5777C28.6007 24.5677 28.753 24.5745 28.9057 24.5685C29.0588 24.5567 29.2163 24.5327 29.3678 24.5761C29.3697 24.6034 29.3742 24.6585 29.3762 24.6858C29.3922 24.7376 29.4071 24.7915 29.4228 24.8462C29.4349 24.8871 29.447 24.9289 29.4586 24.9723C29.4963 25.0654 29.5357 25.1591 29.5751 25.2531C29.8603 25.7625 30.2589 26.2269 30.7795 26.5053C30.7495 26.4383 30.716 26.3756 30.6787 26.3145C30.4505 25.7565 30.3123 25.1527 30.3662 24.5476C30.6836 24.5479 31.001 24.5419 31.3188 24.5463C31.371 24.8152 31.4497 25.0786 31.547 25.335C31.8025 25.9758 32.3151 26.4788 32.8861 26.8476C33.0548 26.9618 33.2509 27.0248 33.4245 27.1301C33.4538 27.1313 33.5126 27.1338 33.5418 27.1345C33.3149 26.9751 33.1577 26.746 33.0062 26.5182C32.6096 25.9397 32.4216 25.2362 32.4113 24.5392C32.704 24.5392 32.9974 24.5452 33.2907 24.5549C33.3638 24.7996 33.4373 25.045 33.5398 25.2796C33.9231 26.1666 34.6415 26.8489 35.3678 27.4616C35.4992 27.5508 35.598 27.687 35.7464 27.7517C35.6918 27.6408 35.6081 27.5495 35.5403 27.4479C35.2872 27.0916 35.0538 26.7207 34.84 26.3395C34.5366 25.7987 34.3238 25.2016 34.2707 24.5814C34.6142 24.5814 34.9577 24.583 35.3011 24.5866C35.3108 24.6435 35.322 24.7015 35.3369 24.7602C35.3639 24.8268 35.3912 24.8936 35.4201 24.9618C35.4398 25.0036 35.4607 25.0466 35.4816 25.0912C35.5088 25.1427 35.5366 25.1949 35.5643 25.2483C35.8543 25.7638 36.1601 26.2744 36.5414 26.7287C36.8215 27.0506 37.1317 27.345 37.455 27.6227C37.535 27.6887 37.6121 27.7593 37.6937 27.8249C37.8134 27.9189 37.9335 28.0129 38.0553 28.1053C38.4703 28.4074 38.9018 28.6878 39.3534 28.9329C39.6254 29.0836 39.905 29.2193 40.1866 29.3515C40.3992 29.4479 40.6133 29.5419 40.8286 29.6336C41.3927 29.8698 41.9713 30.0695 42.5591 30.2391C42.9452 30.3423 43.3389 30.4986 43.7451 30.4247C43.5312 30.2098 43.2694 30.0527 43.0143 29.8936C42.2605 29.4307 41.5045 28.9732 40.7555 28.5031C40.1328 28.1179 39.5293 27.7016 38.9553 27.2473C38.4699 26.8527 38.0035 26.4312 37.5905 25.9608C37.2839 25.5948 37.0392 25.183 36.8063 24.768C36.7793 24.7061 36.7544 24.6451 36.7323 24.5836C37.4061 24.5752 38.081 24.5876 38.754 24.5386C39.0409 24.7479 39.3487 24.9263 39.6608 25.0954C39.9328 25.2376 40.2053 25.3786 40.4809 25.5148C40.7697 25.6579 41.0598 25.798 41.3495 25.9411C41.3929 25.96 41.4367 25.9805 41.4817 26.0022C41.5725 26.0463 41.6637 26.0905 41.7552 26.1364C41.7982 26.1548 41.8416 26.1758 41.8862 26.197C42.0955 26.2999 42.3073 26.3975 42.5166 26.5016C42.5865 26.5338 42.6576 26.5675 42.7291 26.6005C42.7657 26.6182 42.803 26.637 42.8409 26.6571C43.0566 26.7595 43.2788 26.8527 43.478 26.9866C43.6488 27.054 43.8357 27.0419 44.0153 27.0279C44.0639 27.0034 44.1141 26.983 44.1643 26.9624C44.2037 26.9351 44.2447 26.9105 44.2852 26.8853C44.3586 26.8298 44.4343 26.7768 44.5094 26.7242C45.1189 26.3574 45.7203 25.9778 46.3065 25.5747C46.4817 25.455 46.654 25.3313 46.8296 25.2127C46.9224 25.1453 47.0157 25.0778 47.1113 25.0143C47.2611 24.907 47.4094 24.7974 47.5616 24.6937C47.6427 24.627 47.7232 24.5599 47.8043 24.4936V24.4594L47.838 24.4603C47.8564 24.4197 47.8753 24.3808 47.895 24.3425L47.9311 24.3369C47.9303 24.3241 47.9288 24.2979 47.9276 24.2846C47.962 24.2216 47.9781 24.1508 47.9999 24.0845C47.9992 24.0267 47.9992 23.97 48 23.915ZM35.1852 11.5674C35.6444 11.4156 36.1768 11.6799 36.3761 12.1117C36.513 12.3954 36.5259 12.7634 36.3246 13.0213C35.9742 13.4491 35.235 13.4741 34.8726 13.0483C34.4756 12.6136 34.6118 11.7771 35.1852 11.5674ZM13.0714 13.1098C12.9115 13.2676 12.6901 13.3371 12.4711 13.3593C12.4411 13.3593 12.3812 13.3589 12.351 13.3589C12.0328 13.3224 11.6935 13.1564 11.5769 12.8393C11.4033 12.3621 11.6902 11.7976 12.151 11.6084C12.4278 11.4883 12.777 11.4838 13.022 11.677C13.4434 12.0206 13.4756 12.7398 13.0714 13.1098ZM7.64435 24.1918C7.57766 24.2187 7.51097 24.2464 7.44381 24.2738C7.3498 24.3135 7.25542 24.3537 7.16104 24.3935C7.06741 24.4332 6.97416 24.475 6.87977 24.5144C6.7593 24.5671 6.63911 24.6213 6.51741 24.6719C6.42529 24.7141 6.33251 24.7563 6.23897 24.796C5.99831 24.9041 5.75679 25.0101 5.51575 25.1182C5.3836 25.176 5.2522 25.2363 5.12042 25.2957C4.87975 25.4018 4.63984 25.5098 4.39974 25.6176C4.25628 25.6594 4.08108 25.8402 3.94846 25.6895C3.80669 25.5762 3.66286 25.4661 3.51865 25.3569C3.47362 25.3215 3.42907 25.2861 3.38404 25.2532C2.83282 24.8257 2.26351 24.4215 1.70824 23.9997C2.25513 23.5826 2.81756 23.1865 3.36031 22.7642C3.42172 22.7172 3.48163 22.6695 3.54276 22.6241C3.59579 22.5831 3.64807 22.5421 3.70157 22.5032C3.81282 22.4204 3.91728 22.3292 4.0305 22.2492C4.10444 22.2275 4.17075 22.2834 4.23744 22.3075C4.39494 22.3799 4.55441 22.4501 4.71275 22.5225C4.9811 22.6398 5.24786 22.761 5.51537 22.8809C5.65365 22.9415 5.7907 23.0042 5.92926 23.0644C6.00565 23.099 6.0828 23.1327 6.15947 23.168C6.2969 23.2251 6.43103 23.2895 6.56846 23.348C6.67217 23.3931 6.77578 23.4388 6.87987 23.4846C6.97557 23.524 7.06995 23.5658 7.16509 23.6075C7.25749 23.6448 7.34905 23.6843 7.44032 23.7249C7.50748 23.7502 7.57493 23.7779 7.64162 23.8068C7.80551 23.8703 7.96828 23.9363 8.13303 23.9981C7.97101 24.0648 7.8074 24.1267 7.64435 24.1918ZM12.9742 36.357C12.613 36.5847 12.1172 36.463 11.828 36.1722C11.537 35.8824 11.4158 35.3871 11.6444 35.0268C11.8577 34.7162 12.2772 34.586 12.6376 34.6672C13.0292 34.7367 13.343 35.1015 13.3495 35.5004L13.3676 35.5245C13.3563 35.8379 13.2478 36.1762 12.9742 36.357ZM23.3506 6.56754C23.3024 6.45621 23.2514 6.34694 23.2048 6.23608C23.151 6.11552 23.0963 5.99589 23.0445 5.87533C22.8762 5.5045 22.713 5.13131 22.5455 4.76001C22.486 4.62221 22.4206 4.48724 22.3635 4.34906C22.3241 4.2446 22.2405 4.14815 22.2494 4.03286C22.3281 3.91719 22.4225 3.81273 22.5049 3.69942C22.5921 3.58611 22.6788 3.47242 22.766 3.35958C23.1879 2.816 23.5843 2.2535 24.0018 1.70719C24.418 2.25444 24.8146 2.81648 25.2373 3.3592C25.2826 3.41949 25.3297 3.47939 25.3759 3.5408C25.4876 3.68501 25.5976 3.83054 25.7117 3.97352C25.8227 4.08758 25.6776 4.23141 25.6402 4.34962C25.5812 4.48658 25.5168 4.62202 25.4575 4.75973C25.4036 4.87982 25.3493 5.00001 25.2958 5.12086C25.2417 5.24133 25.1874 5.36189 25.1339 5.48283C25.0745 5.61301 25.0175 5.7444 24.9584 5.87495C24.907 5.99589 24.8519 6.11599 24.7974 6.23655C24.7455 6.35787 24.6908 6.47843 24.6383 6.59975C24.5984 6.69291 24.5571 6.78531 24.5153 6.87856C24.4764 6.97294 24.4358 7.06694 24.3952 7.16141C24.3563 7.25466 24.316 7.34744 24.2758 7.44107C24.1818 7.67212 24.0878 7.90307 24.0011 8.13733C23.9661 8.03852 23.9267 7.94169 23.8901 7.84486C23.8358 7.70989 23.7812 7.57567 23.7266 7.44144C23.603 7.14936 23.4776 6.85802 23.3506 6.56754ZM24.6532 41.432C24.7533 41.663 24.8573 41.8924 24.9589 42.1233C25.0164 42.2543 25.0758 42.3853 25.1352 42.5167C25.1932 42.6541 25.2586 42.7882 25.3177 42.9265C25.3716 43.0466 25.4271 43.1672 25.4797 43.2897C25.5331 43.4086 25.5881 43.5272 25.6399 43.6481C25.677 43.767 25.8215 43.9092 25.7124 44.0262C25.5918 44.1759 25.4749 44.3286 25.3583 44.4822C25.3182 44.534 25.2768 44.5861 25.2374 44.64C24.8148 45.1828 24.4186 45.7456 24.0012 46.2929C23.585 45.7453 23.188 45.1832 22.7658 44.6405C22.6328 44.4649 22.4986 44.291 22.364 44.1174C22.3206 44.0463 22.2173 43.986 22.2543 43.8924C22.2797 43.819 22.3154 43.7523 22.346 43.683C22.4122 43.5349 22.4814 43.3886 22.5441 43.24C22.5991 43.119 22.655 42.9986 22.7064 42.8768C22.7671 42.7467 22.8246 42.6153 22.8828 42.4846C22.9314 42.3745 22.9816 42.2657 23.0299 42.156C23.0881 42.0242 23.1456 41.8928 23.2062 41.7627C23.2577 41.6409 23.3115 41.5204 23.3641 41.4002C23.4128 41.2885 23.4625 41.1781 23.5088 41.0668C23.5852 40.8976 23.6542 40.7261 23.7277 40.5566C23.7538 40.4883 23.7815 40.4216 23.8101 40.3556C23.8744 40.1926 23.9358 40.0291 24.0038 39.8679C24.0893 40.0994 24.1833 40.328 24.2762 40.5569C24.3168 40.6506 24.3566 40.7446 24.3955 40.8409C24.4362 40.9326 24.4775 41.025 24.5165 41.1193C24.5612 41.2234 24.607 41.3275 24.6532 41.432ZM25.3817 24.911C25.1933 25.1051 25.0313 25.3373 24.7786 25.455C24.4733 25.6342 24.1113 25.6498 23.767 25.6322C23.4452 25.5843 23.1266 25.4506 22.904 25.2076C22.5553 24.9304 22.3516 24.4808 22.3681 24.0364C22.3359 23.6969 22.4452 23.3534 22.6365 23.0754C22.8152 22.8797 22.9812 22.6591 23.2275 22.5435C23.5324 22.3647 23.894 22.3487 24.2383 22.3679C24.5589 22.4157 24.8771 22.5491 25.0994 22.7918C25.4461 23.0686 25.6506 23.5145 25.6349 23.958C25.6713 24.2943 25.5564 24.6273 25.3817 24.911ZM34.8368 34.9942C34.9898 34.7933 35.2306 34.6672 35.4817 34.6495C35.8826 34.6028 36.3522 34.8286 36.4535 35.2445C36.5596 35.6908 36.3036 36.1822 35.8902 36.3733C35.6066 36.5104 35.2386 36.524 34.9811 36.3228C34.5989 36.0083 34.5319 35.3835 34.8368 34.9942ZM44.4841 25.3569C44.4226 25.4019 44.3627 25.4493 44.3024 25.4963C44.1735 25.573 44.0727 25.7169 43.9287 25.7542C43.6925 25.6742 43.4723 25.5493 43.2405 25.4564C42.8689 25.2877 42.4953 25.1234 42.1232 24.9559C42.0031 24.9041 41.8842 24.8494 41.7657 24.796C41.6539 24.749 41.5446 24.6976 41.4341 24.6506C41.3301 24.6052 41.2269 24.559 41.1235 24.514C41.0287 24.475 40.9355 24.4349 40.8428 24.3935C40.6812 24.3252 40.5189 24.2589 40.3578 24.1913C40.1951 24.1275 40.034 24.0604 39.8696 24.0022C40.0312 23.9347 40.1951 23.872 40.3583 23.8081C40.4242 23.7792 40.4905 23.7518 40.5579 23.726C40.6515 23.6851 40.7456 23.6446 40.8404 23.6059C41.0385 23.5199 41.2373 23.436 41.4342 23.348C41.9171 23.1355 42.3988 22.9214 42.8794 22.7041C43.0007 22.6523 43.1208 22.598 43.2406 22.5426C43.39 22.4799 43.5368 22.4108 43.6846 22.3445C43.7915 22.31 43.924 22.1822 44.0273 22.2887C44.2225 22.4433 44.4215 22.594 44.6191 22.7463C45.1704 23.1742 45.7392 23.578 46.2953 23.9994C45.6942 24.4554 45.0787 24.892 44.4841 25.3569Z" fill="var(--fill-0, #BA1640)"/>
</svg>
